<?xml version="1.0" encoding="UTF-8"?>
<svg viewBox="0 0 223.07 275.34" xmlns="http://www.w3.org/2000/svg">
 <path d="m212.79 156.77c7 42-24.737 75.697-91.921 83.25-56.333 6.333-111.35-31.193-111.33-79 32-48.667 121.96-103.71 122.46-55.903 0.211 20.57 56.799-29.597 80.799 51.653z" fill="#010101" fill-opacity=".314"/>
 <path d="m191.9 125.98c-1.039-14.407-4.696-27.927-10.387-39.897 6.41-4.801 10.701-13.3 10.701-22.971 0-14.967-10.213-27.117-22.788-27.117-8.129 0-15.236 5.104-19.269 12.733-12.013-8.094-25.888-12.733-40.669-12.733-14.779 0-28.625 4.643-40.636 12.733-4.032-7.629-11.14-12.733-19.269-12.733-12.576 0-22.788 12.15-22.788 27.117 0 9.684 4.276 18.174 10.701 22.971-5.691 11.97-9.348 25.491-10.387 39.899-10.487 11.029-16.604 24.279-16.604 38.535 0 38.384 44.323 69.5 99 69.5s99-31.116 99-69.5c0-14.256-6.118-27.507-16.605-38.537z" fill="#939dac" stroke="#010101" stroke-linecap="round" stroke-linejoin="round" stroke-width="4"/>
 <g fill="#010101">
  <path d="m162.07 172.89c-3.86 7.963-10.946 11.702-15.825 8.35-4.878-3.352-5.7-12.521-1.837-20.482 3.862-7.96 10.948-11.698 15.825-8.348 4.878 3.352 5.7 12.521 1.837 20.48z"/>
  <path d="m56.941 172.89c3.86 7.963 10.948 11.702 15.825 8.35 4.876-3.352 5.7-12.521 1.835-20.482-3.858-7.96-10.946-11.698-15.823-8.348-4.878 3.352-5.7 12.521-1.837 20.48z"/>
 </g>
 <g fill="#e6e6e6" stroke="#010101" stroke-linecap="round" stroke-linejoin="round" stroke-width="4">
  <path d="m168.67 48.799c-4.57 0-8.562 2.865-10.839 7.147 6.99 5.602 13.007 12.755 17.711 21.075 3.587-2.712 5.978-7.503 5.978-12.931-0.001007-8.438-5.759-15.291-12.85-15.291z"/>
  <path d="m48.493 48.799c4.57 0 8.562 2.865 10.839 7.147-6.989 5.602-13.007 12.755-17.71 21.075-3.588-2.712-5.979-7.503-5.979-12.931 0-8.438 5.759-15.291 12.85-15.291z"/>
 </g>
 <path d="m155.54 107.8c0.003006 12.519-10.145 22.669-22.663 22.669-12.52 0-22.667-10.15-22.663-22.669-0.003998-12.519 10.144-22.669 22.663-22.669 12.518 0 22.666 10.15 22.663 22.669z" fill="#fff" stroke="#010101" stroke-linecap="round" stroke-linejoin="round" stroke-width="4"/>
 <path d="m135.39 111.8c0.001999 4.173-3.381 7.557-7.554 7.557s-7.556-3.384-7.555-7.557c-9.99e-4 -4.173 3.382-7.557 7.555-7.557s7.556 3.384 7.554 7.557z" fill="#010101"/>
 <path d="m102.8 107.8c0.003998 12.519-10.145 22.669-22.663 22.669s-22.666-10.15-22.663-22.669c-0.002998-12.519 10.145-22.669 22.663-22.669s22.667 10.15 22.663 22.669z" fill="#fff" stroke="#010101" stroke-linecap="round" stroke-linejoin="round" stroke-width="4"/>
 <path d="m93.362 111.8c0.001999 4.173-3.381 7.557-7.554 7.557s-7.556-3.384-7.555-7.557c-9.99e-4 -4.173 3.382-7.557 7.555-7.557s7.556 3.384 7.554 7.557z" fill="#010101"/>
 <path d="m206.54 151.02c-4.93 47.578-28.332 65.369-82 71.333-24 2.667-39.333 5.334-83.667-7 40.667 21.334 47 16.667 79 17.667 24.501 0.76601 64-10.334 83.667-45.667 11-27 3.98-31.113 3-36.333z" fill="#010101" fill-opacity=".314"/>
</svg>
